{
	"patcher" : 	{
		"fileversion" : 1,
		"appversion" : 		{
			"major" : 9,
			"minor" : 0,
			"revision" : 7,
			"architecture" : "x64",
			"modernui" : 1
		}
,
		"classnamespace" : "box",
		"rect" : [ 540.0, 125.0, 1653.0, 1127.0 ],
		"gridsize" : [ 15.0, 15.0 ],
		"integercoordinates" : 1,
		"boxes" : [ 			{
				"box" : 				{
					"id" : "obj-73",
					"maxclass" : "newobj",
					"numinlets" : 6,
					"numoutlets" : 1,
					"outlettype" : [ "signal" ],
					"patching_rect" : [ 1290.0, 255.0, 110.0, 22.0 ],
					"text" : "scale~ 0. 100. 0. 3."
				}

			}
, 			{
				"box" : 				{
					"id" : "obj-32",
					"listresize" : 0,
					"maxclass" : "multislider",
					"numinlets" : 1,
					"numoutlets" : 2,
					"outlettype" : [ "", "" ],
					"parameter_enable" : 0,
					"patching_rect" : [ 872.0, 675.0, 628.0, 264.0 ],
					"setminmax" : [ 0.0, 1.0 ],
					"setstyle" : 4
				}

			}
, 			{
				"box" : 				{
					"id" : "obj-17",
					"maxclass" : "newobj",
					"numinlets" : 1,
					"numoutlets" : 0,
					"patching_rect" : [ 990.0, 570.0, 42.0, 22.0 ],
					"text" : "out~ 2"
				}

			}
, 			{
				"box" : 				{
					"id" : "obj-11",
					"maxclass" : "newobj",
					"numinlets" : 1,
					"numoutlets" : 0,
					"patching_rect" : [ 690.0, 570.0, 42.0, 22.0 ],
					"text" : "out~ 1"
				}

			}
, 			{
				"box" : 				{
					"id" : "obj-52",
					"maxclass" : "newobj",
					"numinlets" : 1,
					"numoutlets" : 1,
					"outlettype" : [ "signal" ],
					"patching_rect" : [ 990.0, 525.0, 68.0, 22.0 ],
					"text" : "mc.sum~ 1"
				}

			}
, 			{
				"box" : 				{
					"id" : "obj-49",
					"maxclass" : "newobj",
					"numinlets" : 1,
					"numoutlets" : 1,
					"outlettype" : [ "signal" ],
					"patching_rect" : [ 690.0, 525.0, 68.0, 22.0 ],
					"text" : "mc.sum~ 1"
				}

			}
, 			{
				"box" : 				{
					"id" : "obj-25",
					"maxclass" : "message",
					"numinlets" : 2,
					"numoutlets" : 1,
					"outlettype" : [ "" ],
					"patching_rect" : [ 420.0, 270.0, 126.0, 22.0 ],
					"text" : "setvalue 1 exportcode"
				}

			}
, 			{
				"box" : 				{
					"id" : "obj-107",
					"maxclass" : "newobj",
					"numinlets" : 2,
					"numoutlets" : 2,
					"outlettype" : [ "", "" ],
					"patching_rect" : [ 1290.0, 615.0, 49.0, 22.0 ],
					"text" : "list.sum"
				}

			}
, 			{
				"box" : 				{
					"id" : "obj-106",
					"maxclass" : "newobj",
					"numinlets" : 2,
					"numoutlets" : 2,
					"outlettype" : [ "", "" ],
					"patching_rect" : [ 1290.0, 525.0, 59.0, 22.0 ],
					"text" : "route cpu"
				}

			}
, 			{
				"box" : 				{
					"id" : "obj-105",
					"maxclass" : "newobj",
					"numinlets" : 2,
					"numoutlets" : 2,
					"outlettype" : [ "", "" ],
					"patching_rect" : [ 1290.0, 570.0, 74.0, 22.0 ],
					"text" : "list.group 64"
				}

			}
, 			{
				"box" : 				{
					"id" : "obj-97",
					"maxclass" : "toggle",
					"numinlets" : 1,
					"numoutlets" : 1,
					"outlettype" : [ "int" ],
					"parameter_enable" : 0,
					"patching_rect" : [ 505.0, 627.0, 24.0, 24.0 ]
				}

			}
, 			{
				"box" : 				{
					"bubble" : 1,
					"fontname" : "Arial",
					"fontsize" : 13.0,
					"id" : "obj-92",
					"maxclass" : "comment",
					"numinlets" : 1,
					"numoutlets" : 0,
					"patching_rect" : [ 538.0, 670.0, 130.0, 25.0 ],
					"text" : "report cpu usage"
				}

			}
, 			{
				"box" : 				{
					"fontname" : "Arial",
					"fontsize" : 13.0,
					"id" : "obj-93",
					"maxclass" : "newobj",
					"numinlets" : 2,
					"numoutlets" : 1,
					"outlettype" : [ "bang" ],
					"patching_rect" : [ 510.0, 725.0, 107.0, 23.0 ],
					"text" : "metro 16.666667"
				}

			}
, 			{
				"box" : 				{
					"fontname" : "Arial",
					"fontsize" : 13.0,
					"id" : "obj-94",
					"maxclass" : "message",
					"numinlets" : 2,
					"numoutlets" : 1,
					"outlettype" : [ "" ],
					"patching_rect" : [ 510.0, 765.0, 110.0, 23.0 ],
					"text" : "setvalue 0 getcpu"
				}

			}
, 			{
				"box" : 				{
					"attr" : "cpumeasure",
					"fontface" : 0,
					"fontname" : "Arial",
					"fontsize" : 13.0,
					"id" : "obj-95",
					"maxclass" : "attrui",
					"numinlets" : 1,
					"numoutlets" : 1,
					"outlettype" : [ "" ],
					"parameter_enable" : 0,
					"patching_rect" : [ 652.0, 725.0, 150.0, 23.0 ]
				}

			}
, 			{
				"box" : 				{
					"id" : "obj-15",
					"maxclass" : "newobj",
					"numinlets" : 2,
					"numoutlets" : 1,
					"outlettype" : [ "signal" ],
					"patching_rect" : [ 1065.0, 255.0, 33.0, 22.0 ],
					"text" : "!-~ 1"
				}

			}
, 			{
				"box" : 				{
					"id" : "obj-9",
					"maxclass" : "newobj",
					"numinlets" : 0,
					"numoutlets" : 1,
					"outlettype" : [ "signal" ],
					"patching_rect" : [ 1065.0, 210.0, 189.0, 22.0 ],
					"text" : "live.param~ \"Algorithm Mod Lock\""
				}

			}
, 			{
				"box" : 				{
					"id" : "obj-6",
					"maxclass" : "newobj",
					"numinlets" : 2,
					"numoutlets" : 7,
					"outlettype" : [ "signal", "signal", "signal", "signal", "signal", "signal", "signal" ],
					"patcher" : 					{
						"fileversion" : 1,
						"appversion" : 						{
							"major" : 9,
							"minor" : 0,
							"revision" : 7,
							"architecture" : "x64",
							"modernui" : 1
						}
,
						"classnamespace" : "dsp.gen",
						"rect" : [ 1184.0, 150.0, 987.0, 618.0 ],
						"gridsize" : [ 15.0, 15.0 ],
						"integercoordinates" : 1,
						"boxes" : [ 							{
								"box" : 								{
									"id" : "obj-10",
									"maxclass" : "newobj",
									"numinlets" : 1,
									"numoutlets" : 0,
									"patching_rect" : [ 457.0, 551.0, 35.0, 22.0 ],
									"text" : "out 7"
								}

							}
, 							{
								"box" : 								{
									"id" : "obj-9",
									"maxclass" : "newobj",
									"numinlets" : 1,
									"numoutlets" : 0,
									"patching_rect" : [ 390.0, 551.0, 35.0, 22.0 ],
									"text" : "out 6"
								}

							}
, 							{
								"box" : 								{
									"id" : "obj-5",
									"maxclass" : "newobj",
									"numinlets" : 1,
									"numoutlets" : 0,
									"patching_rect" : [ 323.0, 551.0, 35.0, 22.0 ],
									"text" : "out 5"
								}

							}
, 							{
								"box" : 								{
									"id" : "obj-8",
									"maxclass" : "newobj",
									"numinlets" : 1,
									"numoutlets" : 0,
									"patching_rect" : [ 254.0, 551.0, 35.0, 22.0 ],
									"text" : "out 4"
								}

							}
, 							{
								"box" : 								{
									"id" : "obj-7",
									"maxclass" : "newobj",
									"numinlets" : 1,
									"numoutlets" : 0,
									"patching_rect" : [ 184.0, 551.0, 35.0, 22.0 ],
									"text" : "out 3"
								}

							}
, 							{
								"box" : 								{
									"id" : "obj-6",
									"maxclass" : "newobj",
									"numinlets" : 1,
									"numoutlets" : 0,
									"patching_rect" : [ 115.0, 551.0, 35.0, 22.0 ],
									"text" : "out 2"
								}

							}
, 							{
								"box" : 								{
									"id" : "obj-1",
									"maxclass" : "newobj",
									"numinlets" : 0,
									"numoutlets" : 1,
									"outlettype" : [ "" ],
									"patching_rect" : [ 45.0, 15.0, 28.0, 22.0 ],
									"text" : "in 1"
								}

							}
, 							{
								"box" : 								{
									"id" : "obj-2",
									"maxclass" : "newobj",
									"numinlets" : 0,
									"numoutlets" : 1,
									"outlettype" : [ "" ],
									"patching_rect" : [ 675.0, 15.0, 28.0, 22.0 ],
									"text" : "in 2"
								}

							}
, 							{
								"box" : 								{
									"code" : "weight(px, py, cx, cy, r)\n{\n    dx = px - cx;\n    dy = py - cy;\n    d = hypot(dx, dy);\n    return max(0, 1 - d / r);\n}\r\n\r\nHistory _out1, _out2, _out3, _out4, _out5, _out6, _out7;\n\nif (change(in1) || change(in2)) {\r\n\tx = scale(in1, 52.5238, 59.8136, 0, 1);\r\n\ty = scale(in2, 24.1831, 39.6133, 0, 1);\r\n\n    _out1 = weight(x, y, 0.087719286742963, 0.213440212699556, 0.417449417433788);\r\n\t_out1 *= 0.333;\n    _out2 = weight(x, y, 0.764666696946808, 0.125806416935287, 0.700000000000000);\r\n\t_out2 *= 0.25;\n    _out3 = weight(x, y, 0.118908369541168, 0.835815144568374, 0.442726233263606);\n    _out4 = weight(x, y, 0.707602307357286, 0.900725413536288, 0.379266906276192);\n\n    _out5 = weight(x, y, 0.39, 0.7, 0.261999994814396) +\n        weight(x, y, 0.426000089347362, 0.174000065326691, 0.225999995172024) +\n        weight(x, y, 0.7, 0.27, 0.293999997675419) +\r\n\t\tweight(x, y, 0.85400009572506, 0.550000070929527, 0.264000000953674);\n    _out6 = weight(x, y, 0.714000093638897, 0.838000075221062, 0.268000001013279) +\n        weight(x, y, 0.070000084042549, 1.0, 0.26000000089407) +\n        weight(x, y, 0.419473898410797, 0.411052796840668, 0.111999998688698) +\n        weight(x, y, 0.858000095784664, 0.102000064253807, 0.127999998927116);\n    _out7 = weight(x, y, 0.046000083684921, 0.586000071465969, 0.143999999165535) +\n        weight(x, y, 0.654000092744827, 0.69000007301569, 0.103999998569488) +\n        weight(x, y, 0.186000085771084, 0.40600006878376, 0.167999999523163) +\r\n\t\tweight(x, y, 0.1140000846982, 0.106000064313412, 0.191999999880791);\n}\n\nout1, out2, out3, out4, out5, out6, out7 = _out1, _out2, _out3, _out4, _out5, _out6, _out7;",
									"fontface" : 0,
									"fontname" : "<Monospaced>",
									"fontsize" : 12.0,
									"id" : "obj-3",
									"maxclass" : "codebox",
									"numinlets" : 2,
									"numoutlets" : 7,
									"outlettype" : [ "", "", "", "", "", "", "" ],
									"patching_rect" : [ 45.0, 75.0, 645.0, 430.0 ]
								}

							}
, 							{
								"box" : 								{
									"id" : "obj-4",
									"maxclass" : "newobj",
									"numinlets" : 1,
									"numoutlets" : 0,
									"patching_rect" : [ 45.0, 551.0, 35.0, 22.0 ],
									"text" : "out 1"
								}

							}
 ],
						"lines" : [ 							{
								"patchline" : 								{
									"destination" : [ "obj-3", 0 ],
									"source" : [ "obj-1", 0 ]
								}

							}
, 							{
								"patchline" : 								{
									"destination" : [ "obj-3", 1 ],
									"source" : [ "obj-2", 0 ]
								}

							}
, 							{
								"patchline" : 								{
									"destination" : [ "obj-10", 0 ],
									"source" : [ "obj-3", 6 ]
								}

							}
, 							{
								"patchline" : 								{
									"destination" : [ "obj-4", 0 ],
									"source" : [ "obj-3", 0 ]
								}

							}
, 							{
								"patchline" : 								{
									"destination" : [ "obj-5", 0 ],
									"source" : [ "obj-3", 4 ]
								}

							}
, 							{
								"patchline" : 								{
									"destination" : [ "obj-6", 0 ],
									"source" : [ "obj-3", 1 ]
								}

							}
, 							{
								"patchline" : 								{
									"destination" : [ "obj-7", 0 ],
									"source" : [ "obj-3", 2 ]
								}

							}
, 							{
								"patchline" : 								{
									"destination" : [ "obj-8", 0 ],
									"source" : [ "obj-3", 3 ]
								}

							}
, 							{
								"patchline" : 								{
									"destination" : [ "obj-9", 0 ],
									"source" : [ "obj-3", 5 ]
								}

							}
 ],
						"saved_attribute_attributes" : 						{
							"default_plcolor" : 							{
								"expression" : ""
							}

						}

					}
,
					"patching_rect" : [ 885.0, 120.0, 94.0, 22.0 ],
					"text" : "gen~"
				}

			}
, 			{
				"box" : 				{
					"id" : "obj-48",
					"maxclass" : "newobj",
					"numinlets" : 0,
					"numoutlets" : 1,
					"outlettype" : [ "signal" ],
					"patching_rect" : [ 960.0, 75.0, 127.0, 22.0 ],
					"text" : "live.param~ Longitude"
				}

			}
, 			{
				"box" : 				{
					"id" : "obj-50",
					"maxclass" : "newobj",
					"numinlets" : 0,
					"numoutlets" : 1,
					"outlettype" : [ "signal" ],
					"patching_rect" : [ 885.0, 30.0, 117.0, 22.0 ],
					"text" : "live.param~ Latitude"
				}

			}
, 			{
				"box" : 				{
					"id" : "obj-42",
					"maxclass" : "newobj",
					"numinlets" : 2,
					"numoutlets" : 1,
					"outlettype" : [ "signal" ],
					"patcher" : 					{
						"fileversion" : 1,
						"appversion" : 						{
							"major" : 9,
							"minor" : 0,
							"revision" : 7,
							"architecture" : "x64",
							"modernui" : 1
						}
,
						"classnamespace" : "dsp.gen",
						"rect" : [ 59.0, 106.0, 1080.0, 962.0 ],
						"gridsize" : [ 15.0, 15.0 ],
						"integercoordinates" : 1,
						"boxes" : [ 							{
								"box" : 								{
									"code" : "quantize_tune(unquantized_tune, max_divisor) {\r\n\tHistory optimal_tune(0);\r\n\tif (!change(unquantized_tune) && !change(max_divisor)) return optimal_tune;\n\tif (max_divisor <= 0) return unquantized_tune;\n\n\toptimal_tune = round(unquantized_tune);\n\tmin_distance = abs(optimal_tune - unquantized_tune);\n\tfor (divisor = 2; divisor < max_divisor; divisor += 1) {\n\t\tcurrent_tune = round(unquantized_tune, 1 / divisor);\n\t\tcurrent_distance = abs(current_tune - unquantized_tune);\n\t\tif (current_distance < min_distance) {\n\t\t\toptimal_tune = current_tune;\n\t\t\tmin_distance = current_distance;\n\t\t}\n\t}\n\n\treturn optimal_tune;\n}\r\n\r\nout1 = quantize_tune(in1, int(in2));",
									"fontface" : 0,
									"fontname" : "<Monospaced>",
									"fontsize" : 12.0,
									"id" : "obj-5",
									"maxclass" : "codebox",
									"numinlets" : 2,
									"numoutlets" : 1,
									"outlettype" : [ "" ],
									"patching_rect" : [ 44.0, 118.0, 579.0, 334.0 ]
								}

							}
, 							{
								"box" : 								{
									"id" : "obj-1",
									"maxclass" : "newobj",
									"numinlets" : 0,
									"numoutlets" : 1,
									"outlettype" : [ "" ],
									"patching_rect" : [ 50.0, 14.0, 28.0, 22.0 ],
									"text" : "in 1"
								}

							}
, 							{
								"box" : 								{
									"id" : "obj-2",
									"maxclass" : "newobj",
									"numinlets" : 0,
									"numoutlets" : 1,
									"outlettype" : [ "" ],
									"patching_rect" : [ 305.0, 14.0, 28.0, 22.0 ],
									"text" : "in 2"
								}

							}
, 							{
								"box" : 								{
									"id" : "obj-4",
									"maxclass" : "newobj",
									"numinlets" : 1,
									"numoutlets" : 0,
									"patching_rect" : [ 43.0, 500.0, 35.0, 22.0 ],
									"text" : "out 1"
								}

							}
 ],
						"lines" : [ 							{
								"patchline" : 								{
									"destination" : [ "obj-5", 0 ],
									"source" : [ "obj-1", 0 ]
								}

							}
, 							{
								"patchline" : 								{
									"destination" : [ "obj-5", 1 ],
									"source" : [ "obj-2", 0 ]
								}

							}
, 							{
								"patchline" : 								{
									"destination" : [ "obj-4", 0 ],
									"source" : [ "obj-5", 0 ]
								}

							}
 ],
						"saved_attribute_attributes" : 						{
							"default_plcolor" : 							{
								"expression" : ""
							}

						}

					}
,
					"patching_rect" : [ 1125.0, 121.0, 139.0, 22.0 ],
					"text" : "gen~ @t quantize-ratio"
				}

			}
, 			{
				"box" : 				{
					"id" : "obj-36",
					"maxclass" : "newobj",
					"numinlets" : 2,
					"numoutlets" : 1,
					"outlettype" : [ "signal" ],
					"patching_rect" : [ 1605.0, 390.0, 33.0, 22.0 ],
					"text" : "!-~ 1"
				}

			}
, 			{
				"box" : 				{
					"id" : "obj-41",
					"maxclass" : "newobj",
					"numinlets" : 0,
					"numoutlets" : 1,
					"outlettype" : [ "signal" ],
					"patching_rect" : [ 1605.0, 345.0, 175.0, 22.0 ],
					"text" : "live.param~ \"Timbre Mod Lock\"",
					"varname" : "param[13]"
				}

			}
, 			{
				"box" : 				{
					"id" : "obj-26",
					"maxclass" : "newobj",
					"numinlets" : 2,
					"numoutlets" : 1,
					"outlettype" : [ "signal" ],
					"patching_rect" : [ 1560.0, 345.0, 33.0, 22.0 ],
					"text" : "!-~ 1"
				}

			}
, 			{
				"box" : 				{
					"id" : "obj-29",
					"maxclass" : "newobj",
					"numinlets" : 0,
					"numoutlets" : 1,
					"outlettype" : [ "signal" ],
					"patching_rect" : [ 1560.0, 300.0, 188.0, 22.0 ],
					"text" : "live.param~ \"Envelope Mod Lock\"",
					"varname" : "param[11]"
				}

			}
, 			{
				"box" : 				{
					"id" : "obj-10",
					"maxclass" : "newobj",
					"numinlets" : 2,
					"numoutlets" : 1,
					"outlettype" : [ "signal" ],
					"patching_rect" : [ 1470.0, 165.0, 54.0, 22.0 ],
					"text" : "*~ 0.001"
				}

			}
, 			{
				"box" : 				{
					"id" : "obj-4",
					"maxclass" : "newobj",
					"numinlets" : 2,
					"numoutlets" : 1,
					"outlettype" : [ "signal" ],
					"patching_rect" : [ 1425.0, 75.0, 54.0, 22.0 ],
					"text" : "*~ 0.001"
				}

			}
, 			{
				"box" : 				{
					"id" : "obj-1",
					"maxclass" : "newobj",
					"numinlets" : 1,
					"numoutlets" : 0,
					"patching_rect" : [ 479.0, 235.0, 131.0, 22.0 ],
					"text" : "s ---update-parameters"
				}

			}
, 			{
				"box" : 				{
					"id" : "obj-68",
					"maxclass" : "newobj",
					"numinlets" : 1,
					"numoutlets" : 1,
					"outlettype" : [ "signal" ],
					"patching_rect" : [ 1515.0, 255.0, 276.0, 22.0 ],
					"text" : "gen~ @expr \"pow(10, scale(in1, -100, 100, -1, 1))\"",
					"varname" : "gen_AA"
				}

			}
, 			{
				"box" : 				{
					"id" : "obj-67",
					"maxclass" : "newobj",
					"numinlets" : 0,
					"numoutlets" : 1,
					"outlettype" : [ "signal" ],
					"patching_rect" : [ 1515.0, 210.0, 100.0, 22.0 ],
					"text" : "live.param~ Time",
					"varname" : "param[10]"
				}

			}
, 			{
				"box" : 				{
					"id" : "obj-66",
					"maxclass" : "newobj",
					"numinlets" : 0,
					"numoutlets" : 1,
					"outlettype" : [ "signal" ],
					"patching_rect" : [ 1470.0, 120.0, 180.0, 22.0 ],
					"text" : "live.param~ \"Envelope Release\"",
					"varname" : "param[9]"
				}

			}
, 			{
				"box" : 				{
					"id" : "obj-65",
					"maxclass" : "newobj",
					"numinlets" : 0,
					"numoutlets" : 1,
					"outlettype" : [ "signal" ],
					"patching_rect" : [ 1425.0, 30.0, 169.0, 22.0 ],
					"text" : "live.param~ \"Envelope Attack\"",
					"varname" : "param[8]"
				}

			}
, 			{
				"box" : 				{
					"id" : "obj-64",
					"maxclass" : "newobj",
					"numinlets" : 0,
					"numoutlets" : 1,
					"outlettype" : [ "signal" ],
					"patching_rect" : [ 1245.0, 75.0, 169.0, 22.0 ],
					"text" : "live.param~ mod_subquantize",
					"varname" : "param[7]"
				}

			}
, 			{
				"box" : 				{
					"id" : "obj-63",
					"maxclass" : "newobj",
					"numinlets" : 0,
					"numoutlets" : 1,
					"outlettype" : [ "signal" ],
					"patching_rect" : [ 1125.0, 31.0, 121.0, 22.0 ],
					"text" : "live.param~ param_y",
					"varname" : "param[6]"
				}

			}
, 			{
				"box" : 				{
					"id" : "obj-62",
					"maxclass" : "newobj",
					"numinlets" : 0,
					"numoutlets" : 1,
					"outlettype" : [ "signal" ],
					"patching_rect" : [ 1290.0, 210.0, 121.0, 22.0 ],
					"text" : "live.param~ param_x",
					"varname" : "param[5]"
				}

			}
, 			{
				"box" : 				{
					"id" : "obj-27",
					"maxclass" : "message",
					"numinlets" : 2,
					"numoutlets" : 1,
					"outlettype" : [ "" ],
					"patching_rect" : [ 390.0, 345.0, 35.0, 22.0 ],
					"text" : "open"
				}

			}
, 			{
				"box" : 				{
					"id" : "obj-24",
					"maxclass" : "newobj",
					"numinlets" : 0,
					"numoutlets" : 1,
					"outlettype" : [ "" ],
					"patching_rect" : [ 390.0, 300.0, 79.0, 22.0 ],
					"text" : "r ---open-gen"
				}

			}
, 			{
				"box" : 				{
					"id" : "obj-20",
					"maxclass" : "message",
					"numinlets" : 2,
					"numoutlets" : 1,
					"outlettype" : [ "" ],
					"patching_rect" : [ 120.0, 675.0, 45.0, 22.0 ],
					"text" : "noteon"
				}

			}
, 			{
				"box" : 				{
					"id" : "obj-22",
					"maxclass" : "newobj",
					"numinlets" : 2,
					"numoutlets" : 1,
					"outlettype" : [ "" ],
					"patching_rect" : [ 30.0, 630.0, 80.0, 22.0 ],
					"text" : "pack noteon i"
				}

			}
, 			{
				"box" : 				{
					"annotation" : "",
					"id" : "obj-61",
					"maxclass" : "newobj",
					"numinlets" : 1,
					"numoutlets" : 0,
					"patching_rect" : [ 180.0, 765.0, 35.0, 22.0 ],
					"saved_object_attributes" : 					{
						"attr_comment" : "noteon/noteoff"
					}
,
					"text" : "out 1"
				}

			}
, 			{
				"box" : 				{
					"id" : "obj-58",
					"maxclass" : "newobj",
					"numinlets" : 2,
					"numoutlets" : 1,
					"outlettype" : [ "" ],
					"patching_rect" : [ 180.0, 720.0, 49.0, 22.0 ],
					"text" : "pack s i"
				}

			}
, 			{
				"box" : 				{
					"id" : "obj-57",
					"maxclass" : "message",
					"numinlets" : 2,
					"numoutlets" : 1,
					"outlettype" : [ "" ],
					"patching_rect" : [ 180.0, 675.0, 45.0, 22.0 ],
					"text" : "noteoff"
				}

			}
, 			{
				"box" : 				{
					"id" : "obj-54",
					"maxclass" : "newobj",
					"numinlets" : 1,
					"numoutlets" : 2,
					"outlettype" : [ "", "int" ],
					"patching_rect" : [ 240.0, 675.0, 85.0, 22.0 ],
					"text" : "unpack voice i"
				}

			}
, 			{
				"box" : 				{
					"id" : "obj-12",
					"maxclass" : "newobj",
					"numinlets" : 1,
					"numoutlets" : 3,
					"outlettype" : [ "", "", "" ],
					"patching_rect" : [ 120.0, 630.0, 62.0, 22.0 ],
					"text" : "mc.edge~"
				}

			}
, 			{
				"box" : 				{
					"id" : "obj-43",
					"maxclass" : "newobj",
					"numinlets" : 1,
					"numoutlets" : 1,
					"outlettype" : [ "multichannelsignal" ],
					"patching_rect" : [ 135.0, 390.0, 122.0, 22.0 ],
					"text" : "mc.click~ @chans 32"
				}

			}
, 			{
				"box" : 				{
					"id" : "obj-39",
					"maxclass" : "newobj",
					"numinlets" : 1,
					"numoutlets" : 1,
					"outlettype" : [ "multichannelsignal" ],
					"patching_rect" : [ 270.0, 390.0, 114.0, 22.0 ],
					"text" : "mc.sig~ @chans 32"
				}

			}
, 			{
				"box" : 				{
					"id" : "obj-35",
					"maxclass" : "newobj",
					"numinlets" : 1,
					"numoutlets" : 3,
					"outlettype" : [ "bang", "int", "bang" ],
					"patching_rect" : [ 135.0, 195.0, 40.0, 22.0 ],
					"text" : "t b i b"
				}

			}
, 			{
				"box" : 				{
					"id" : "obj-33",
					"maxclass" : "newobj",
					"numinlets" : 2,
					"numoutlets" : 1,
					"outlettype" : [ "" ],
					"patching_rect" : [ 270.0, 255.0, 47.0, 22.0 ],
					"text" : "pack i f"
				}

			}
, 			{
				"box" : 				{
					"id" : "obj-37",
					"maxclass" : "newobj",
					"numinlets" : 2,
					"numoutlets" : 2,
					"outlettype" : [ "setvalue", "int" ],
					"patching_rect" : [ 135.0, 345.0, 59.0, 22.0 ],
					"text" : "mc.target"
				}

			}
, 			{
				"box" : 				{
					"color" : [ 1.0, 0.694117647058824, 0.0, 1.0 ],
					"id" : "obj-34",
					"maxclass" : "newobj",
					"numinlets" : 3,
					"numoutlets" : 1,
					"outlettype" : [ "" ],
					"patcher" : 					{
						"fileversion" : 1,
						"appversion" : 						{
							"major" : 9,
							"minor" : 0,
							"revision" : 7,
							"architecture" : "x64",
							"modernui" : 1
						}
,
						"classnamespace" : "box",
						"rect" : [ 189.0, 100.0, 742.0, 762.0 ],
						"gridsize" : [ 15.0, 15.0 ],
						"integercoordinates" : 1,
						"visible" : 1,
						"boxes" : [ 							{
								"box" : 								{
									"id" : "obj-22",
									"maxclass" : "button",
									"numinlets" : 1,
									"numoutlets" : 1,
									"outlettype" : [ "bang" ],
									"parameter_enable" : 0,
									"patching_rect" : [ 187.0, 86.0, 24.0, 24.0 ]
								}

							}
, 							{
								"box" : 								{
									"id" : "obj-9",
									"maxclass" : "newobj",
									"numinlets" : 2,
									"numoutlets" : 2,
									"outlettype" : [ "setvalue", "int" ],
									"patching_rect" : [ 292.0, 149.0, 59.0, 22.0 ],
									"text" : "mc.target"
								}

							}
, 							{
								"box" : 								{
									"id" : "obj-8",
									"maxclass" : "newobj",
									"numinlets" : 2,
									"numoutlets" : 2,
									"outlettype" : [ "setvalue", "int" ],
									"patching_rect" : [ 50.0, 149.0, 59.0, 22.0 ],
									"text" : "mc.target"
								}

							}
, 							{
								"box" : 								{
									"id" : "obj-5",
									"maxclass" : "newobj",
									"numinlets" : 2,
									"numoutlets" : 2,
									"outlettype" : [ "", "" ],
									"patching_rect" : [ 50.0, 214.0, 256.0, 22.0 ],
									"text" : "mc.gen @expr mtof(in1 + 48 * in2) @chans 32"
								}

							}
, 							{
								"box" : 								{
									"id" : "obj-130",
									"maxclass" : "newobj",
									"numinlets" : 1,
									"numoutlets" : 2,
									"outlettype" : [ "int", "float" ],
									"patching_rect" : [ 50.0, 88.0, 60.0, 22.0 ],
									"text" : "unpack i f"
								}

							}
, 							{
								"box" : 								{
									"comment" : "",
									"id" : "obj-2",
									"index" : 1,
									"maxclass" : "inlet",
									"numinlets" : 0,
									"numoutlets" : 1,
									"outlettype" : [ "" ],
									"patching_rect" : [ 50.0, 40.0, 30.0, 30.0 ]
								}

							}
, 							{
								"box" : 								{
									"comment" : "",
									"cool" : 1,
									"id" : "obj-3",
									"index" : 3,
									"maxclass" : "inlet",
									"numinlets" : 0,
									"numoutlets" : 1,
									"outlettype" : [ "int" ],
									"patching_rect" : [ 332.0, 40.0, 30.0, 30.0 ]
								}

							}
, 							{
								"box" : 								{
									"comment" : "",
									"id" : "obj-4",
									"index" : 2,
									"maxclass" : "inlet",
									"numinlets" : 0,
									"numoutlets" : 1,
									"outlettype" : [ "" ],
									"patching_rect" : [ 292.0, 40.0, 30.0, 30.0 ]
								}

							}
, 							{
								"box" : 								{
									"comment" : "",
									"id" : "obj-6",
									"index" : 1,
									"maxclass" : "outlet",
									"numinlets" : 1,
									"numoutlets" : 0,
									"patching_rect" : [ 50.0, 294.0, 30.0, 30.0 ]
								}

							}
 ],
						"lines" : [ 							{
								"patchline" : 								{
									"destination" : [ "obj-8", 0 ],
									"source" : [ "obj-130", 0 ]
								}

							}
, 							{
								"patchline" : 								{
									"destination" : [ "obj-9", 0 ],
									"source" : [ "obj-130", 1 ]
								}

							}
, 							{
								"patchline" : 								{
									"destination" : [ "obj-130", 0 ],
									"source" : [ "obj-2", 0 ]
								}

							}
, 							{
								"patchline" : 								{
									"destination" : [ "obj-8", 0 ],
									"source" : [ "obj-22", 0 ]
								}

							}
, 							{
								"patchline" : 								{
									"destination" : [ "obj-8", 1 ],
									"order" : 1,
									"source" : [ "obj-3", 0 ]
								}

							}
, 							{
								"patchline" : 								{
									"destination" : [ "obj-9", 1 ],
									"order" : 0,
									"source" : [ "obj-3", 0 ]
								}

							}
, 							{
								"patchline" : 								{
									"destination" : [ "obj-22", 0 ],
									"order" : 1,
									"source" : [ "obj-4", 0 ]
								}

							}
, 							{
								"patchline" : 								{
									"destination" : [ "obj-9", 0 ],
									"order" : 0,
									"source" : [ "obj-4", 0 ]
								}

							}
, 							{
								"patchline" : 								{
									"destination" : [ "obj-6", 0 ],
									"source" : [ "obj-5", 0 ]
								}

							}
, 							{
								"patchline" : 								{
									"destination" : [ "obj-5", 0 ],
									"source" : [ "obj-8", 0 ]
								}

							}
, 							{
								"patchline" : 								{
									"destination" : [ "obj-5", 1 ],
									"source" : [ "obj-9", 0 ]
								}

							}
 ],
						"toolbaradditions" : [ "packagemanager", "browsegendsp" ],
						"saved_attribute_attributes" : 						{
							"default_plcolor" : 							{
								"expression" : ""
							}

						}

					}
,
					"patching_rect" : [ 270.0, 300.0, 75.0, 22.0 ],
					"saved_attribute_attributes" : 					{
						"default_plcolor" : 						{
							"expression" : ""
						}

					}
,
					"text" : "p Frequency"
				}

			}
, 			{
				"box" : 				{
					"id" : "obj-134",
					"maxclass" : "newobj",
					"numinlets" : 2,
					"numoutlets" : 2,
					"outlettype" : [ "setvalue", "int" ],
					"patching_rect" : [ 270.0, 345.0, 59.0, 22.0 ],
					"text" : "mc.target"
				}

			}
, 			{
				"box" : 				{
					"id" : "obj-51",
					"maxclass" : "newobj",
					"numinlets" : 1,
					"numoutlets" : 6,
					"outlettype" : [ "list", "list", "int", "int", "", "int" ],
					"patching_rect" : [ 135.0, 150.0, 272.0, 22.0 ],
					"text" : "mc.noteallocator~ @voices 32 @steal 1 @hires 1"
				}

			}
, 			{
				"box" : 				{
					"id" : "obj-38",
					"maxclass" : "newobj",
					"numinlets" : 1,
					"numoutlets" : 10,
					"outlettype" : [ "", "", "", "", "int", "", "int", "int", "int", "" ],
					"patching_rect" : [ 30.0, 75.0, 124.0, 22.0 ],
					"text" : "mpeparse @hires 1"
				}

			}
, 			{
				"box" : 				{
					"color" : [ 0.964705882352941, 0.0, 1.0, 1.0 ],
					"data" : 					{
						"patcher" : 						{
							"fileversion" : 1,
							"appversion" : 							{
								"major" : 9,
								"minor" : 0,
								"revision" : 7,
								"architecture" : "x64",
								"modernui" : 1
							}
,
							"classnamespace" : "dsp.gen",
							"rect" : [ 89.0, 114.0, 1175.0, 1183.0 ],
							"gridsize" : [ 15.0, 15.0 ],
							"integercoordinates" : 1,
							"boxes" : [ 								{
									"box" : 									{
										"maxclass" : "newobj",
										"text" : "out 3",
										"patching_rect" : [ 702.0, 1050.0, 35.0, 22.0 ],
										"numinlets" : 1,
										"numoutlets" : 0,
										"id" : "obj-22"
									}

								}
, 								{
									"box" : 									{
										"maxclass" : "newobj",
										"text" : "in 28 @comment CTL_MOD_MOD_LOCK",
										"patching_rect" : [ 945.0, 165.0, 234.0, 22.0 ],
										"numinlets" : 0,
										"numoutlets" : 1,
										"outlettype" : [ "" ],
										"id" : "obj-19"
									}

								}
, 								{
									"box" : 									{
										"maxclass" : "newobj",
										"text" : "in 16 @comment ALG_MOD_LOCK",
										"patching_rect" : [ 416.0, 255.0, 200.0, 22.0 ],
										"numinlets" : 0,
										"numoutlets" : 1,
										"outlettype" : [ "" ],
										"id" : "obj-17"
									}

								}
, 								{
									"box" : 									{
										"maxclass" : "newobj",
										"text" : "in 27 @comment CTL_AMP_MOD_LOCK",
										"patching_rect" : [ 615.0, 165.0, 232.0, 22.0 ],
										"numinlets" : 0,
										"numoutlets" : 1,
										"outlettype" : [ "" ],
										"id" : "obj-18"
									}

								}
, 								{
									"box" : 									{
										"maxclass" : "newobj",
										"text" : "in 26 @comment CTL_TIME_SCALE",
										"patching_rect" : [ 921.0, 120.0, 207.0, 22.0 ],
										"numinlets" : 0,
										"numoutlets" : 1,
										"outlettype" : [ "" ],
										"id" : "obj-26"
									}

								}
, 								{
									"box" : 									{
										"maxclass" : "newobj",
										"text" : "in 25 @comment CTL_AMP_REL",
										"patching_rect" : [ 896.0, 75.0, 188.0, 22.0 ],
										"numinlets" : 0,
										"numoutlets" : 1,
										"outlettype" : [ "" ],
										"id" : "obj-25"
									}

								}
, 								{
									"box" : 									{
										"maxclass" : "newobj",
										"text" : "in 24 @comment CTL_AMP_ATK",
										"patching_rect" : [ 870.0, 30.0, 187.0, 22.0 ],
										"numinlets" : 0,
										"numoutlets" : 1,
										"outlettype" : [ "" ],
										"id" : "obj-24"
									}

								}
, 								{
									"box" : 									{
										"maxclass" : "newobj",
										"text" : "in 6 @comment mpe_slide",
										"patching_rect" : [ 159.0, 255.0, 151.0, 22.0 ],
										"numinlets" : 0,
										"numoutlets" : 1,
										"outlettype" : [ "" ],
										"id" : "obj-12"
									}

								}
, 								{
									"box" : 									{
										"maxclass" : "newobj",
										"text" : "in 23 @comment CTL_MOD_RATIO_QUANTIZE",
										"patching_rect" : [ 596.0, 120.0, 270.0, 22.0 ],
										"numinlets" : 0,
										"numoutlets" : 1,
										"outlettype" : [ "" ],
										"id" : "obj-23"
									}

								}
, 								{
									"box" : 									{
										"maxclass" : "newobj",
										"text" : "in 22 @comment CTL_MOD_RATIO",
										"patching_rect" : [ 570.0, 75.0, 203.0, 22.0 ],
										"numinlets" : 0,
										"numoutlets" : 1,
										"outlettype" : [ "" ],
										"id" : "obj-20"
									}

								}
, 								{
									"box" : 									{
										"maxclass" : "newobj",
										"text" : "in 21 @comment CTL_MOD_AMT",
										"patching_rect" : [ 545.0, 30.0, 192.0, 22.0 ],
										"numinlets" : 0,
										"numoutlets" : 1,
										"outlettype" : [ "" ],
										"id" : "obj-16"
									}

								}
, 								{
									"box" : 									{
										"maxclass" : "newobj",
										"text" : "in 15 @comment ALG_OP_ROUTING",
										"patching_rect" : [ 390.0, 210.0, 212.0, 22.0 ],
										"numinlets" : 0,
										"numoutlets" : 1,
										"outlettype" : [ "" ],
										"id" : "obj-10"
									}

								}
, 								{
									"box" : 									{
										"maxclass" : "newobj",
										"text" : "in 14 @comment ALG_CAR_ENV",
										"patching_rect" : [ 365.0, 165.0, 189.0, 22.0 ],
										"numinlets" : 0,
										"numoutlets" : 1,
										"outlettype" : [ "" ],
										"id" : "obj-6"
									}

								}
, 								{
									"box" : 									{
										"maxclass" : "newobj",
										"text" : "in 13 @comment ALG_MOD_ENV",
										"patching_rect" : [ 339.0, 120.0, 192.0, 22.0 ],
										"numinlets" : 0,
										"numoutlets" : 1,
										"outlettype" : [ "" ],
										"id" : "obj-15"
									}

								}
, 								{
									"box" : 									{
										"maxclass" : "newobj",
										"text" : "in 12 @comment ALG_CAR_FB",
										"patching_rect" : [ 313.0, 75.0, 180.0, 22.0 ],
										"numinlets" : 0,
										"numoutlets" : 1,
										"outlettype" : [ "" ],
										"id" : "obj-14"
									}

								}
, 								{
									"box" : 									{
										"maxclass" : "newobj",
										"text" : "in 11 @comment ALG_MOD_FB",
										"patching_rect" : [ 287.0, 30.0, 182.0, 22.0 ],
										"numinlets" : 0,
										"numoutlets" : 1,
										"outlettype" : [ "" ],
										"id" : "obj-13"
									}

								}
, 								{
									"box" : 									{
										"maxclass" : "comment",
										"text" : "Нужно ли для Latch передавать параметры как сигнал?\n- поступает миди-нота\n- поступает модуляция\n- нужно сматчить модуляцию с нотами",
										"linecount" : 7,
										"patching_rect" : [ 945.0, 225.0, 150.0, 100.0 ],
										"numinlets" : 1,
										"numoutlets" : 0,
										"id" : "obj-11"
									}

								}
, 								{
									"box" : 									{
										"maxclass" : "newobj",
										"text" : "in 5 @comment mpe_press",
										"patching_rect" : [ 133.0, 210.0, 155.0, 22.0 ],
										"numinlets" : 0,
										"numoutlets" : 1,
										"outlettype" : [ "" ],
										"id" : "obj-9"
									}

								}
, 								{
									"box" : 									{
										"maxclass" : "newobj",
										"text" : "in 4 @comment velocity",
										"patching_rect" : [ 107.0, 165.0, 136.0, 22.0 ],
										"numinlets" : 0,
										"numoutlets" : 1,
										"outlettype" : [ "" ],
										"id" : "obj-8"
									}

								}
, 								{
									"box" : 									{
										"maxclass" : "newobj",
										"text" : "in 3 @comment note_freq",
										"patching_rect" : [ 81.0, 120.0, 147.0, 22.0 ],
										"numinlets" : 0,
										"numoutlets" : 1,
										"outlettype" : [ "" ],
										"id" : "obj-7"
									}

								}
, 								{
									"box" : 									{
										"maxclass" : "newobj",
										"text" : "in 2 @comment gate",
										"patching_rect" : [ 56.0, 75.0, 119.0, 22.0 ],
										"numinlets" : 0,
										"numoutlets" : 1,
										"outlettype" : [ "" ],
										"id" : "obj-3"
									}

								}
, 								{
									"box" : 									{
										"maxclass" : "newobj",
										"text" : "in 1 @comment trig",
										"patching_rect" : [ 30.0, 30.0, 113.0, 22.0 ],
										"numinlets" : 0,
										"numoutlets" : 1,
										"outlettype" : [ "" ],
										"id" : "obj-1"
									}

								}
, 								{
									"box" : 									{
										"maxclass" : "newobj",
										"text" : "out 2",
										"patching_rect" : [ 600.0, 1050.0, 35.0, 22.0 ],
										"numinlets" : 1,
										"numoutlets" : 0,
										"id" : "obj-2"
									}

								}
, 								{
									"box" : 									{
										"maxclass" : "codebox",
										"patching_rect" : [ 30.0, 345.0, 688.0, 674.0 ],
										"numinlets" : 28,
										"fontsize" : 12.0,
										"numoutlets" : 3,
										"fontname" : "<Monospaced>",
										"outlettype" : [ "", "", "" ],
										"fontface" : 0,
										"id" : "obj-5",
										"code" : "// ---------- Basic DSP blocks ----------\n\n\n/**\n * Attack-release envelope from Lode - https://github.com/fors-fm/lode\n */\nar(trig, gate, attack, release, release_lin_exp) {\n\tHistory env(0), stage(0),\n\t\t\tatk_rate(0), atk_coeff(0), atk_offset(0),\n\t\t\trel_rate(0), rel_coeff(0), rel_slope(0), rel_offset(0);\n\t\n\tif (change(attack) != 0) {\n\t\t// time in seconds\n\t\tatk_rate = samplerate * attack;\n\t\t\n\t\t// calculate coefficients\n\t\tatk_offset = 1 / atk_rate;\n\t}\n\t\n\tif (change(release) != 0 || change(release_lin_exp) != 0) {\n\t\t// time in seconds\n\t\trel_rate = samplerate * release;\n\t\t\n\t\t// slope 0 = linear, slope -n = log/exp\n\t\trel_slope = exp(-8 * release_lin_exp);\n\t\t\n\t\t// calculate coefficients\n\t\trel_coeff = exp(-log((1 + rel_slope) / rel_slope) / rel_rate);\n\t\t// rel_offset = -rel_slope * (1 - rel_coeff);\n\t}\n\t\n\tif (trig) {\n\t\trel_offset = -rel_slope * (1 - rel_coeff);\n\n\t\t// reset & trigger envelope\n\t\tstage = 1;\n\t}\t\n\n\t// stage 0 = idle, 1 = attack, 2 = decay\n\tif (stage == 0) {\n\t\tenv = 0;\n\t} else if (stage == 1) {\n\t\tenv = atk_offset + env;\n\t\t\n\t\tif (!gate) {\n\t\t\tstage = 2;\n\t\t}\n\t\t\n\t\tif (env >= 1 || attack <= 0) {\n\t\t\tenv = 1;\n\t\t\tstage = 2;\n\t\t}\n\t} else {\n\t\tenv = rel_offset + env * rel_coeff;\n\t\t\n\t\tif (env <= 0 || release <= 0) {\n\t\t\tenv = 0;\n\t\t\tstage = 0;\n\t\t}\n\t}\n\treturn env;\n}\n\nar_loop(trig, gate, attack, release, release_lin_exp) {\n\tHistory trigged(0), env(0);\n\t\n\tif (trig) trigged = 1;\n\tif (!gate) trigged = 0;\n\n\ttrig_loop = trig || gate && env == 0;\n\tenv = ar(trig_loop, gate, attack, release, release_lin_exp);\n\treturn env, trig_loop;\n}\n\n/**\n * Attack-hold-release envelope from Lode - https://github.com/fors-fm/lode\n */\nahr(trig, gate, attack, release) {\n\tHistory env(0), stage(0), trigged(0), gating(0),\n\t\t\tatk_rate(0), atk_coeff(0), atk_offset(0),\n\t\t\trel_rate(0), rel_coeff(0), rel_offset(0);\n\t\t\n\tif (trig) {\n\t\tif (gate && trigged) {\n\t\t\t// do nothing\n\t\t} else {\n\t\t\ttrigged = 1;\n\t\t\t\n\t\t\t// rate in seconds\n\t\t\tatk_rate = samplerate * attack;\n\t\t\trel_rate = samplerate * release;\n\t\t\n\t\t\t// slope 0 = linear, slope -n = log/exp\n\t\t\trel_slope = exp(-8);\n\t\t\n\t\t\t// calculate coefficients\n\t\t\tatk_offset = 1 / atk_rate;\n\t\t\n\t\t\trel_coeff = exp(-log((1 + rel_slope) / rel_slope) / rel_rate);\n\t\t\trel_offset = -rel_slope * (1 - rel_coeff);\n\t\t\n\t\t\t// reset & trigger envelope\n\t\t\tstage = 1;\n\t\t}\n\t}\t\n\n\t// stage 0 = idle, 1 = attack, 2 = decay\n\tif (stage == 0) {\n\t\tenv = 0;\n\t} else if (gate && trigged) {\n \t\tif (stage == 1) {\n\t\t\tenv = atk_offset + env;\n\t\t\n\t\t\tif (env >= 1 || attack <= 0) {\n\t\t\t\tenv = 1;\n\t\t\t\tstage = 2;\n\t\t\t}\n\t\t} else {\n\t\t\tenv = env;\n\t\t}\n\t} else {\n\t\ttrigged = 0;\n\t\t\n\t\tenv = rel_offset + env * rel_coeff;\n\t\t\n\t\tif (env <= 0 || release <= 0) {\n\t\t\tenv = 0;\n\t\t\tstage = 0;\n\t\t}\n\t} \n\treturn env, trigged;\n}\n\n// branchless phasor\n\nph(freq) {\n\tHistory phase(0);\n\t\n\tinc = freq / samplerate;\n\t\n\tphase += inc;\n\tphase -= phase >= 1;\n\t\n\treturn phase;\n}\n\n// ---------- Iso-specific blocks ----------\n\n\n/**\n * Morphable looping envelope.\n */\niso_mod_envelope(trig, shape, time_scale) {\n\tHistory attack(0), release(0), release_lin_exp(0);\n\t\n\tif (change(shape) != 0 || change(time_scale) != 0) {\n\t\tattack = (0.2 + 0.18 * cycle(2 * shape - 0.25, index=\"phase\")) * time_scale;\n\t\trelease = (0.6 + 0.45 * cycle(3.42 * shape - 0.02, index=\"phase\")) * time_scale;\n\t\trelease_lin_exp = 0.5 + 0.5 * cycle(1.283 * shape + 0.504, index=\"phase\");\n\t}\n\t\n\tenv = ar_loop(trig, 1, attack, release, 0.1);\n\n\treturn mix(1 - env, 1, shape);\n}\n\n/**\n * Morphable looping envelope.\n */\niso_car_envelope(trig, shape, time_scale) {\n\tHistory attack(0), release(0), release_lin_exp(0);\n\t\n\tif (change(shape) != 0 || change(time_scale) != 0) {\n\t\tattack = (0.3 + 0.26 * cycle(2.2 * shape + 0.166, index=\"phase\")) * time_scale;\n\t\trelease = (1.4 + 0.65 * cycle(1.982 * shape - 0.143, index=\"phase\")) * time_scale;\n\t\trelease_lin_exp = 0.6 + 0.4 * cycle(1.756 * shape - 0.127, index=\"phase\");\n\t}\n\t\n\tenv = ar_loop(trig, 1, attack, release, 0.1);\n\r\n\tscaled_env = selector(\r\n\t\tint(2 * shape + 1),\r\n\t\tmix(1 - env, 1, 2 * shape),\r\n\t\tmix(1, env, 2 * shape - 1)\r\n\t);\n\treturn scale(scaled_env, 0, 1, 0.4, 1);\n}\n\niso_op(trig, freq, fb_amt, mod) {\n\tHistory phase(0);\r\n\tphase *= 1 - trig;\n\tphase = phasor(freq, trig) + cycle(phase - 0.25, index=\"phase\") * fb_amt;\n\treturn cycle(phase - 0.25 + mod, index=\"phase\");\n}\n\niso_mix_oscs(osc, osc_detuned, op_routing) {\n\tif (op_routing >= 0) {\n\t\t// OP Swap\n\t\treturn mix(osc, osc_detuned, op_routing);\n\t} else {\n\t\t// PWM\n\t\treturn osc - osc_detuned;\n\t}\n}\n\ntrig = int(in1);\ngate = in2;\nnote_freq = in3;\nvelocity = in1;\nmpe_press = in5;\nmpe_slide = in6;\n\nALG_MOD_LOCK = int(in16);\nALG_MOD_FB = latch(in11, trig || ALG_MOD_LOCK);\nALG_CAR_FB = latch(in12, trig || ALG_MOD_LOCK);\nALG_MOD_ENV = latch(in13, trig || ALG_MOD_LOCK);\nALG_CAR_ENV = latch(in14, trig || ALG_MOD_LOCK);\nALG_OP_ROUTING = latch(in15, trig || ALG_MOD_LOCK);\n\nCTL_MOD_MOD_LOCK = int(in28);\nCTL_MOD_AMT = latch(in21, trig || CTL_MOD_MOD_LOCK);\nCTL_MOD_RATIO = latch(in22, trig || CTL_MOD_MOD_LOCK);\n\nCTL_AMP_MOD_LOCK = int(in27);\nCTL_AMP_ATK = latch(in24, trig || CTL_AMP_MOD_LOCK);\nCTL_AMP_REL = latch(in25, trig || CTL_AMP_MOD_LOCK);\nCTL_TIME_SCALE = latch(in26, trig || CTL_AMP_MOD_LOCK);\n\n// is_op_swap = ALG_OP_ROUTING >= 0;\n// is_op_pwm = ALG_OP_ROUTING < 0;\n// mod_pwm = is_op_pwm ? scale(ALG_OP_ROUTING, -1, 0, 0.05, 0.5) : 0;\r\nis_op_swap = 1;\r\nis_op_pwm = 0;\r\nmod_pwm = 0;\n// mod_pwm = is_op_pwm ? 0.5 : 0;\nmod_freq = note_freq * CTL_MOD_RATIO;\ncar_freq = note_freq;\n\n// mod operator\nmod_osc = iso_op(trig, mod_freq, ALG_MOD_FB, 0);\nmod_osc_detuned = iso_op(\n\ttrig,\n\tis_op_swap ? car_freq : mod_freq,\n\tALG_MOD_FB,\n\tmod_pwm\n);\nmod_op = mix(mod_osc, mod_osc_detuned, ALG_OP_ROUTING);\nmod_env = iso_mod_envelope(trig, ALG_MOD_ENV, CTL_TIME_SCALE);\nmod_op *= mod_env;\n\n// carrier operator\ncar_osc = iso_op(trig, car_freq, ALG_CAR_FB * mod_op, mod_op * CTL_MOD_AMT);\ncar_osc_detuned = iso_op(\n\ttrig,\n\tis_op_swap ? mod_freq : car_freq,\n\tALG_CAR_FB * mod_op,\n\tmod_op * CTL_MOD_AMT + mod_pwm\n);\ncar_op = mix(car_osc, car_osc_detuned, ALG_OP_ROUTING);\ncar_env = iso_car_envelope(trig, ALG_CAR_ENV, CTL_TIME_SCALE);\ncar_op *= car_env;\n\n// global\namp_env = ar(trig, 1, CTL_AMP_ATK * CTL_TIME_SCALE, CTL_AMP_REL * CTL_TIME_SCALE, 1);\r\nvelocity_amp = latch(velocity * 100 / 127 / 8, trig);\r\npan_left = latch(noise() * 0.5 + 0.5, trig);\nout1 = amp_env;\nout2 = pan_left * amp_env * car_op * velocity_amp;\r\nout3 = (1 - pan_left) * amp_env * car_op * velocity_amp;\n"
									}

								}
, 								{
									"box" : 									{
										"maxclass" : "newobj",
										"text" : "out 1",
										"patching_rect" : [ 30.0, 1050.0, 35.0, 22.0 ],
										"numinlets" : 1,
										"numoutlets" : 0,
										"id" : "obj-4"
									}

								}
 ],
							"lines" : [ 								{
									"patchline" : 									{
										"source" : [ "obj-17", 0 ],
										"destination" : [ "obj-5", 15 ]
									}

								}
, 								{
									"patchline" : 									{
										"source" : [ "obj-18", 0 ],
										"destination" : [ "obj-5", 26 ]
									}

								}
, 								{
									"patchline" : 									{
										"source" : [ "obj-5", 0 ],
										"destination" : [ "obj-4", 0 ]
									}

								}
, 								{
									"patchline" : 									{
										"source" : [ "obj-5", 1 ],
										"destination" : [ "obj-2", 0 ]
									}

								}
, 								{
									"patchline" : 									{
										"source" : [ "obj-3", 0 ],
										"destination" : [ "obj-5", 1 ]
									}

								}
, 								{
									"patchline" : 									{
										"source" : [ "obj-1", 0 ],
										"destination" : [ "obj-5", 0 ]
									}

								}
, 								{
									"patchline" : 									{
										"source" : [ "obj-7", 0 ],
										"destination" : [ "obj-5", 2 ]
									}

								}
, 								{
									"patchline" : 									{
										"source" : [ "obj-8", 0 ],
										"destination" : [ "obj-5", 3 ]
									}

								}
, 								{
									"patchline" : 									{
										"source" : [ "obj-9", 0 ],
										"destination" : [ "obj-5", 4 ]
									}

								}
, 								{
									"patchline" : 									{
										"source" : [ "obj-12", 0 ],
										"destination" : [ "obj-5", 5 ]
									}

								}
, 								{
									"patchline" : 									{
										"source" : [ "obj-13", 0 ],
										"destination" : [ "obj-5", 10 ]
									}

								}
, 								{
									"patchline" : 									{
										"source" : [ "obj-14", 0 ],
										"destination" : [ "obj-5", 11 ]
									}

								}
, 								{
									"patchline" : 									{
										"source" : [ "obj-15", 0 ],
										"destination" : [ "obj-5", 12 ]
									}

								}
, 								{
									"patchline" : 									{
										"source" : [ "obj-6", 0 ],
										"destination" : [ "obj-5", 13 ]
									}

								}
, 								{
									"patchline" : 									{
										"source" : [ "obj-10", 0 ],
										"destination" : [ "obj-5", 14 ]
									}

								}
, 								{
									"patchline" : 									{
										"source" : [ "obj-16", 0 ],
										"destination" : [ "obj-5", 20 ]
									}

								}
, 								{
									"patchline" : 									{
										"source" : [ "obj-20", 0 ],
										"destination" : [ "obj-5", 21 ]
									}

								}
, 								{
									"patchline" : 									{
										"source" : [ "obj-23", 0 ],
										"destination" : [ "obj-5", 22 ]
									}

								}
, 								{
									"patchline" : 									{
										"source" : [ "obj-24", 0 ],
										"destination" : [ "obj-5", 23 ]
									}

								}
, 								{
									"patchline" : 									{
										"source" : [ "obj-25", 0 ],
										"destination" : [ "obj-5", 24 ]
									}

								}
, 								{
									"patchline" : 									{
										"source" : [ "obj-26", 0 ],
										"destination" : [ "obj-5", 25 ]
									}

								}
, 								{
									"patchline" : 									{
										"source" : [ "obj-19", 0 ],
										"destination" : [ "obj-5", 27 ]
									}

								}
, 								{
									"patchline" : 									{
										"source" : [ "obj-5", 2 ],
										"destination" : [ "obj-22", 0 ]
									}

								}
 ],
							"saved_attribute_attributes" : 							{
								"default_plcolor" : 								{
									"expression" : ""
								}

							}

						}

					}
,
					"id" : "obj-21",
					"maxclass" : "newobj",
					"numinlets" : 28,
					"numoutlets" : 5,
					"outlettype" : [ "multichannelsignal", "multichannelsignal", "multichannelsignal", "", "" ],
					"patching_rect" : [ 390.0, 450.0, 1234.0, 22.0 ],
					"text" : "mc.gen~ @title 4-nodes @chans 32 @dumpoutlet 1",
					"varname" : "gen",
					"wrapper_uniquekey" : "u764002497"
				}

			}
, 			{
				"box" : 				{
					"annotation" : "",
					"id" : "obj-16",
					"maxclass" : "newobj",
					"numinlets" : 1,
					"numoutlets" : 1,
					"outlettype" : [ "" ],
					"patching_rect" : [ 30.0, 30.0, 28.0, 22.0 ],
					"saved_object_attributes" : 					{
						"attr_comment" : [ "Raw", "MIDI", "Bytes" ]
					}
,
					"text" : "in 1"
				}

			}
 ],
		"lines" : [ 			{
				"patchline" : 				{
					"destination" : [ "obj-21", 24 ],
					"source" : [ "obj-10", 0 ]
				}

			}
, 			{
				"patchline" : 				{
					"destination" : [ "obj-107", 0 ],
					"source" : [ "obj-105", 0 ]
				}

			}
, 			{
				"patchline" : 				{
					"destination" : [ "obj-105", 0 ],
					"source" : [ "obj-106", 0 ]
				}

			}
, 			{
				"patchline" : 				{
					"destination" : [ "obj-32", 0 ],
					"source" : [ "obj-107", 0 ]
				}

			}
, 			{
				"patchline" : 				{
					"destination" : [ "obj-20", 0 ],
					"disabled" : 1,
					"source" : [ "obj-12", 0 ]
				}

			}
, 			{
				"patchline" : 				{
					"destination" : [ "obj-54", 0 ],
					"source" : [ "obj-12", 2 ]
				}

			}
, 			{
				"patchline" : 				{
					"destination" : [ "obj-57", 0 ],
					"source" : [ "obj-12", 1 ]
				}

			}
, 			{
				"patchline" : 				{
					"destination" : [ "obj-39", 0 ],
					"source" : [ "obj-134", 0 ]
				}

			}
, 			{
				"patchline" : 				{
					"destination" : [ "obj-21", 15 ],
					"source" : [ "obj-15", 0 ]
				}

			}
, 			{
				"patchline" : 				{
					"destination" : [ "obj-38", 0 ],
					"source" : [ "obj-16", 0 ]
				}

			}
, 			{
				"patchline" : 				{
					"destination" : [ "obj-58", 0 ],
					"source" : [ "obj-20", 0 ]
				}

			}
, 			{
				"patchline" : 				{
					"destination" : [ "obj-106", 0 ],
					"source" : [ "obj-21", 3 ]
				}

			}
, 			{
				"patchline" : 				{
					"destination" : [ "obj-12", 0 ],
					"order" : 1,
					"source" : [ "obj-21", 0 ]
				}

			}
, 			{
				"patchline" : 				{
					"destination" : [ "obj-49", 0 ],
					"source" : [ "obj-21", 1 ]
				}

			}
, 			{
				"patchline" : 				{
					"destination" : [ "obj-51", 0 ],
					"midpoints" : [ 399.5, 474.0, 120.0, 474.0, 120.0, 147.0, 144.5, 147.0 ],
					"order" : 0,
					"source" : [ "obj-21", 0 ]
				}

			}
, 			{
				"patchline" : 				{
					"destination" : [ "obj-52", 0 ],
					"source" : [ "obj-21", 2 ]
				}

			}
, 			{
				"patchline" : 				{
					"destination" : [ "obj-61", 0 ],
					"source" : [ "obj-22", 0 ]
				}

			}
, 			{
				"patchline" : 				{
					"destination" : [ "obj-27", 0 ],
					"source" : [ "obj-24", 0 ]
				}

			}
, 			{
				"patchline" : 				{
					"destination" : [ "obj-21", 0 ],
					"source" : [ "obj-25", 0 ]
				}

			}
, 			{
				"patchline" : 				{
					"destination" : [ "obj-21", 26 ],
					"source" : [ "obj-26", 0 ]
				}

			}
, 			{
				"patchline" : 				{
					"destination" : [ "obj-21", 0 ],
					"source" : [ "obj-27", 0 ]
				}

			}
, 			{
				"patchline" : 				{
					"destination" : [ "obj-26", 0 ],
					"source" : [ "obj-29", 0 ]
				}

			}
, 			{
				"patchline" : 				{
					"destination" : [ "obj-34", 0 ],
					"source" : [ "obj-33", 0 ]
				}

			}
, 			{
				"patchline" : 				{
					"destination" : [ "obj-134", 0 ],
					"source" : [ "obj-34", 0 ]
				}

			}
, 			{
				"patchline" : 				{
					"destination" : [ "obj-1", 0 ],
					"disabled" : 1,
					"source" : [ "obj-35", 2 ]
				}

			}
, 			{
				"patchline" : 				{
					"destination" : [ "obj-22", 0 ],
					"order" : 1,
					"source" : [ "obj-35", 0 ]
				}

			}
, 			{
				"patchline" : 				{
					"destination" : [ "obj-33", 0 ],
					"source" : [ "obj-35", 1 ]
				}

			}
, 			{
				"patchline" : 				{
					"destination" : [ "obj-37", 0 ],
					"order" : 0,
					"source" : [ "obj-35", 0 ]
				}

			}
, 			{
				"patchline" : 				{
					"destination" : [ "obj-21", 27 ],
					"source" : [ "obj-36", 0 ]
				}

			}
, 			{
				"patchline" : 				{
					"destination" : [ "obj-43", 0 ],
					"source" : [ "obj-37", 0 ]
				}

			}
, 			{
				"patchline" : 				{
					"destination" : [ "obj-33", 1 ],
					"source" : [ "obj-38", 5 ]
				}

			}
, 			{
				"patchline" : 				{
					"destination" : [ "obj-51", 0 ],
					"source" : [ "obj-38", 9 ]
				}

			}
, 			{
				"patchline" : 				{
					"destination" : [ "obj-21", 2 ],
					"source" : [ "obj-39", 0 ]
				}

			}
, 			{
				"patchline" : 				{
					"destination" : [ "obj-21", 23 ],
					"source" : [ "obj-4", 0 ]
				}

			}
, 			{
				"patchline" : 				{
					"destination" : [ "obj-36", 0 ],
					"source" : [ "obj-41", 0 ]
				}

			}
, 			{
				"patchline" : 				{
					"destination" : [ "obj-21", 21 ],
					"source" : [ "obj-42", 0 ]
				}

			}
, 			{
				"patchline" : 				{
					"destination" : [ "obj-21", 0 ],
					"source" : [ "obj-43", 0 ]
				}

			}
, 			{
				"patchline" : 				{
					"destination" : [ "obj-6", 1 ],
					"source" : [ "obj-48", 0 ]
				}

			}
, 			{
				"patchline" : 				{
					"destination" : [ "obj-11", 0 ],
					"source" : [ "obj-49", 0 ]
				}

			}
, 			{
				"patchline" : 				{
					"destination" : [ "obj-6", 0 ],
					"source" : [ "obj-50", 0 ]
				}

			}
, 			{
				"patchline" : 				{
					"destination" : [ "obj-134", 1 ],
					"order" : 1,
					"source" : [ "obj-51", 5 ]
				}

			}
, 			{
				"patchline" : 				{
					"destination" : [ "obj-22", 1 ],
					"order" : 3,
					"source" : [ "obj-51", 5 ]
				}

			}
, 			{
				"patchline" : 				{
					"destination" : [ "obj-34", 2 ],
					"order" : 0,
					"source" : [ "obj-51", 5 ]
				}

			}
, 			{
				"patchline" : 				{
					"destination" : [ "obj-34", 1 ],
					"source" : [ "obj-51", 4 ]
				}

			}
, 			{
				"patchline" : 				{
					"destination" : [ "obj-35", 0 ],
					"source" : [ "obj-51", 0 ]
				}

			}
, 			{
				"patchline" : 				{
					"destination" : [ "obj-37", 1 ],
					"order" : 2,
					"source" : [ "obj-51", 5 ]
				}

			}
, 			{
				"patchline" : 				{
					"destination" : [ "obj-17", 0 ],
					"source" : [ "obj-52", 0 ]
				}

			}
, 			{
				"patchline" : 				{
					"destination" : [ "obj-58", 1 ],
					"source" : [ "obj-54", 1 ]
				}

			}
, 			{
				"patchline" : 				{
					"destination" : [ "obj-58", 0 ],
					"source" : [ "obj-57", 0 ]
				}

			}
, 			{
				"patchline" : 				{
					"destination" : [ "obj-61", 0 ],
					"source" : [ "obj-58", 0 ]
				}

			}
, 			{
				"patchline" : 				{
					"destination" : [ "obj-21", 12 ],
					"source" : [ "obj-6", 5 ]
				}

			}
, 			{
				"patchline" : 				{
					"destination" : [ "obj-21", 13 ],
					"source" : [ "obj-6", 4 ]
				}

			}
, 			{
				"patchline" : 				{
					"destination" : [ "obj-21", 14 ],
					"source" : [ "obj-6", 2 ]
				}

			}
, 			{
				"patchline" : 				{
					"destination" : [ "obj-21", 10 ],
					"source" : [ "obj-6", 1 ]
				}

			}
, 			{
				"patchline" : 				{
					"destination" : [ "obj-21", 11 ],
					"source" : [ "obj-6", 0 ]
				}

			}
, 			{
				"patchline" : 				{
					"destination" : [ "obj-73", 0 ],
					"source" : [ "obj-62", 0 ]
				}

			}
, 			{
				"patchline" : 				{
					"destination" : [ "obj-42", 0 ],
					"source" : [ "obj-63", 0 ]
				}

			}
, 			{
				"patchline" : 				{
					"destination" : [ "obj-42", 1 ],
					"source" : [ "obj-64", 0 ]
				}

			}
, 			{
				"patchline" : 				{
					"destination" : [ "obj-4", 0 ],
					"source" : [ "obj-65", 0 ]
				}

			}
, 			{
				"patchline" : 				{
					"destination" : [ "obj-10", 0 ],
					"source" : [ "obj-66", 0 ]
				}

			}
, 			{
				"patchline" : 				{
					"destination" : [ "obj-68", 0 ],
					"source" : [ "obj-67", 0 ]
				}

			}
, 			{
				"patchline" : 				{
					"destination" : [ "obj-21", 25 ],
					"source" : [ "obj-68", 0 ]
				}

			}
, 			{
				"patchline" : 				{
					"destination" : [ "obj-21", 20 ],
					"source" : [ "obj-73", 0 ]
				}

			}
, 			{
				"patchline" : 				{
					"destination" : [ "obj-15", 0 ],
					"source" : [ "obj-9", 0 ]
				}

			}
, 			{
				"patchline" : 				{
					"destination" : [ "obj-94", 0 ],
					"source" : [ "obj-93", 0 ]
				}

			}
, 			{
				"patchline" : 				{
					"destination" : [ "obj-21", 0 ],
					"source" : [ "obj-94", 0 ]
				}

			}
, 			{
				"patchline" : 				{
					"destination" : [ "obj-21", 0 ],
					"source" : [ "obj-95", 0 ]
				}

			}
, 			{
				"patchline" : 				{
					"destination" : [ "obj-93", 0 ],
					"order" : 1,
					"source" : [ "obj-97", 0 ]
				}

			}
, 			{
				"patchline" : 				{
					"destination" : [ "obj-95", 0 ],
					"order" : 0,
					"source" : [ "obj-97", 0 ]
				}

			}
 ],
		"toolbaradditions" : [ "packagemanager", "browsegendsp" ],
		"saved_attribute_attributes" : 		{
			"default_plcolor" : 			{
				"expression" : ""
			}

		}

	}

}
